<?xml version="1.0" encoding="utf-8"?>
<!-- Generator: Adobe Illustrator 19.0.0, SVG Export Plug-In . SVG Version: 6.00 Build 0)  -->
<!DOCTYPE svg PUBLIC "-//W3C//DTD SVG 1.1//EN" "http://www.w3.org/Graphics/SVG/1.1/DTD/svg11.dtd">
<svg version="1.1" id="Layer_1" xmlns="http://www.w3.org/2000/svg" xmlns:xlink="http://www.w3.org/1999/xlink" x="0px" y="0px"
	 viewBox="0 0 175 60" style="enable-background:new 0 0 175 60;" xml:space="preserve">
<style type="text/css">
	.st0{fill:url(#XMLID_54_);}
	.st1{fill:url(#XMLID_55_);}
	.st2{fill:url(#XMLID_56_);}
	.st3{fill:url(#XMLID_57_);}
	.st4{fill:url(#XMLID_58_);}
	.st5{fill:url(#XMLID_59_);}
	.st6{fill:#0072B7;}
	.st7{fill:#231F20;}
	.st8{fill:#A4A6A9;}
</style>
<g id="XMLID_4586_">
	
		<linearGradient id="XMLID_54_" gradientUnits="userSpaceOnUse" x1="22.0447" y1="3.312" x2="63.5973" y2="-25.7835" gradientTransform="matrix(0.9925 -0.1219 0.1219 0.9925 -17.9752 34.6286)">
		<stop  offset="0" style="stop-color:#B3B3B3"/>
		<stop  offset="0.1755" style="stop-color:#D8D8D8"/>
		<stop  offset="0.3764" style="stop-color:#FFFFFF"/>
		<stop  offset="0.6798" style="stop-color:#FFFFFF"/>
		<stop  offset="1" style="stop-color:#FFFFFF"/>
	</linearGradient>
	<path id="XMLID_4622_" class="st0" d="M4.2,35.1c0,0,0.7-8.5,8-14.7c6.1-5.1,13.6-7.8,19.5-11.5c5.9-3.7,10-7.6,10-7.6l0.4,0.1
		c0,0-0.5,3.5-3.3,8.5c-1.5,2.6-4.7,7.2-12.3,10.1l-1.7,4.5c-3.3,1.4-8.3,3-8.3,3l-4.1-0.5C9.1,27.7,4.2,35.1,4.2,35.1z"/>
	
		<linearGradient id="XMLID_55_" gradientUnits="userSpaceOnUse" x1="23.2066" y1="17.4963" x2="42.5291" y2="3.9666" gradientTransform="matrix(0.9925 -0.1219 0.1219 0.9925 -17.9752 34.6286)">
		<stop  offset="0" style="stop-color:#FFFFFF"/>
		<stop  offset="0.1663" style="stop-color:#F9F9F9"/>
		<stop  offset="0.3898" style="stop-color:#E8E8E8"/>
		<stop  offset="0.6457" style="stop-color:#CCCCCC"/>
		<stop  offset="0.9239" style="stop-color:#A5A5A5"/>
		<stop  offset="1" style="stop-color:#999999"/>
	</linearGradient>
	<path id="XMLID_4621_" class="st1" d="M24,33l-7.8-9.2C15.8,24.3-2.6,37.8,4,45.3c1.3,1.5,6.4,7.4,7.8,9c1.4,1.6,3.1,2.8,4.9,3.7
		c-0.6-0.7-1.2-2.2-0.9-5.6C16.6,44.4,22.5,35.3,24,33z"/>
	<g id="XMLID_4619_">
		
			<linearGradient id="XMLID_56_" gradientUnits="userSpaceOnUse" x1="24.613" y1="19.514" x2="25.9" y2="18.6128" gradientTransform="matrix(0.9925 -0.1219 0.1219 0.9925 -17.9752 34.6286)">
			<stop  offset="0" style="stop-color:#F2F2F2"/>
			<stop  offset="1" style="stop-color:#CCCCCC"/>
		</linearGradient>
		<path id="XMLID_4620_" class="st2" d="M2.6,41.8c0,1.2,0.4,2.4,1.4,3.5c1.3,1.5,6.4,7.4,7.8,9c1.3,1.5,3.2,3,5.5,3.9L2.6,41.8z"/>
	</g>
	
		<linearGradient id="XMLID_57_" gradientUnits="userSpaceOnUse" x1="37.9204" y1="29.4144" x2="53.0418" y2="-3.0135" gradientTransform="matrix(0.9925 -0.1219 0.1219 0.9925 -17.9752 34.6286)">
		<stop  offset="0" style="stop-color:#FFFFFF"/>
		<stop  offset="0.1696" style="stop-color:#F9F9F9"/>
		<stop  offset="0.3863" style="stop-color:#EAEAEA"/>
		<stop  offset="0.6284" style="stop-color:#CFCFCF"/>
		<stop  offset="0.8873" style="stop-color:#ABABAB"/>
		<stop  offset="1" style="stop-color:#999999"/>
	</linearGradient>
	<path id="XMLID_4618_" class="st3" d="M32.2,46.8c-1.8,0.8-3.5,1.2-5,1.2c-0.9-5.7,1.9-14.4,3.1-17.6l-7.9-9.1
		c-1.1,0.4-2.2,0.9-3.1,1.3l-3.4,26.9L25,59.8l0.3,0c4.7,0.1,10-1.3,14.9-3.9L32.2,46.8z"/>
	
		<linearGradient id="XMLID_58_" gradientUnits="userSpaceOnUse" x1="37.714" y1="27.5535" x2="49.209" y2="19.5046" gradientTransform="matrix(0.9925 -0.1219 0.1219 0.9925 -17.9752 34.6286)">
		<stop  offset="0" style="stop-color:#E6E6E6"/>
		<stop  offset="0.2058" style="stop-color:#DDDDDD"/>
		<stop  offset="0.5413" style="stop-color:#C4C4C4"/>
		<stop  offset="0.9627" style="stop-color:#9D9D9D"/>
		<stop  offset="1" style="stop-color:#999999"/>
	</linearGradient>
	<path id="XMLID_4617_" class="st4" d="M32.2,46.8c-3.2,1.5-8.6,3.6-14.7,3.7l-1.6-1L25,59.8l0.3,0c4.7,0.1,10-1.3,14.9-3.9
		L32.2,46.8z"/>
	
		<linearGradient id="XMLID_59_" gradientUnits="userSpaceOnUse" x1="47.6104" y1="14.73" x2="78.9099" y2="-7.1861" gradientTransform="matrix(0.9925 -0.1219 0.1219 0.9925 -17.9752 34.6286)">
		<stop  offset="0" style="stop-color:#FFFFFF"/>
		<stop  offset="6.477726e-02" style="stop-color:#E7E7E7"/>
		<stop  offset="0.1689" style="stop-color:#C7C7C7"/>
		<stop  offset="0.2823" style="stop-color:#ADADAD"/>
		<stop  offset="0.4064" style="stop-color:#999999"/>
		<stop  offset="0.5468" style="stop-color:#8A8A8A"/>
		<stop  offset="0.717" style="stop-color:#828282"/>
		<stop  offset="1" style="stop-color:#808080"/>
	</linearGradient>
	<path id="XMLID_4616_" class="st5" d="M56.5,14.9c-1.4-1.5-6.6-7.5-8-9.1l-22.3,32c0,0.1,7.7,8.8,7.7,8.8c3.3,3.7,8.1,4.6,11.9,3.6
		c3-0.8,5.3-2.7,6.2-3.6C61.2,36.1,63.4,22.6,56.5,14.9z"/>
	<path id="XMLID_4615_" class="st6" d="M39.2,8.2c-1.9,3.5-4.7,7.8-11.6,10.9c-0.5,0.2-0.9,0.4-1.3,0.6c-1.3,2.4-3.5,7.9-2.2,13.5
		c1.9,7.7,9,9.2,13.7,7.9c3-0.8,5.3-2.7,6.2-3.6c9.2-10.5,11.4-23.9,4.6-31.7c-1.8-2-4-3.5-6.5-4.4C41.8,2.2,40.7,5.3,39.2,8.2z"/>
	<path id="XMLID_4614_" class="st6" d="M8,43.3c0.8-8,6.6-17.1,8.1-19.4c-0.6,0.3-1.2,0.6-1.8,0.9c-7.6,3.9-9.6,9.4-9.6,9.4
		s1-4.3,3-7.5c0.3-0.5,2.4-4.9,8.7-8.9c6.1-3.9,10.2-4.9,16.8-9.3c5.3-3.6,7.9-6.4,8.5-7.1c-8.4-2.9-20.1,0.1-29.4,8.4
		C0,20.5-3.7,36.4,4,45.1c1.4,1.6,3.1,2.8,4.9,3.7C8.3,48.2,7.7,46.6,8,43.3z"/>
	<path id="XMLID_4610_" class="st6" d="M27.1,47.9c-2.9-0.2-6.5-2.4-7.8-8.5c-1.1-5.6,1.8-14.8,3-18.1c-1.1,0.4-2.1,0.9-3,1.2
		c-1.2,2.1-6.6,12.3-5.6,21.4c0.4,4.3,2.3,6.1,3.6,6.8c4.7,0.1,9.9-1.3,14.9-3.9C30.4,47.6,28.7,48,27.1,47.9z"/>
	<path id="XMLID_4607_" class="st7" d="M93.5,29.8c0,5.3-3.1,11.2-11.2,11.2c-8.5,0-11-6.3-11-11c0-5.9,3.7-11.1,11.1-11.1
		C90.6,18.9,93.5,24.9,93.5,29.8z M77.9,30c0,3.6,1.5,5.8,4.6,5.8c2.6,0,4.5-2.1,4.5-6c0-1-0.1-1.9-0.4-2.7c-1-2.9-3.5-3-4.1-3
		C80.1,24.1,77.9,25.7,77.9,30z"/>
	<path id="XMLID_4605_" class="st7" d="M98,33.2c0.6,0.9,1.1,1.7,2.9,2.3c0.9,0.3,1.9,0.5,2.9,0.5c0.5,0,3.1-0.1,3.1-1.6
		c0-0.1,0-0.9-1.1-1.3c-0.7-0.3-4.5-0.9-5.4-1.1c-1.9-0.5-5.6-1.7-5.6-6c0-0.9,0.2-1.8,0.6-2.7c1.3-3.1,4.8-4.3,8.6-4.3
		c2.4,0,4.5,0.5,6.2,1.3c1.6,0.8,2.3,1.6,3.1,2.3l-4.1,3.4c-0.3-0.4-0.7-0.9-1.6-1.4c-1.2-0.6-2.8-0.8-3.8-0.8
		c-1.1,0-2.3,0.3-2.3,1.3c0,1,1.1,1.3,2.8,1.6c4.6,0.8,9.2,1.6,9.2,6.7c0,2.2-0.9,3.7-1.8,4.7c-2.6,2.7-6.8,2.7-7.9,2.7
		c-1.6,0-3.2-0.1-4.8-0.6c-3.3-0.9-4.8-2.8-5.7-3.9L98,33.2z"/>
	<path id="XMLID_4603_" class="st7" d="M115.3,19.7h6.6v20.7h-6.6V19.7z"/>
	<path id="XMLID_4601_" class="st8" d="M129,34.3c-2.2-0.5-5-1.1-5-4c0-2.5,2.1-4.1,5.3-4.1c2.6,0,5.5,1.3,5.9,4.5l-2.5,0.3
		c0-0.9-0.1-1.5-1-2.2c-0.9-0.7-2-0.8-2.7-0.8c-1.8,0-2.7,1.1-2.7,2c0,1.3,1.5,1.7,3.3,2.2l1.3,0.3c1.6,0.4,4.6,1.1,4.6,4
		c0,2.3-2,4.4-5.8,4.4c-1.6,0-3.2-0.3-4.3-1.1c-0.4-0.3-1.8-1.4-2.1-3.8l2.6-0.4c0,0.6,0,1.8,1,2.7C128,38.9,129,39,130,39
		c2.1,0,3.3-0.8,3.3-2.3c0-1.6-1.2-1.9-2.9-2.2L129,34.3z"/>
	<path id="XMLID_4598_" class="st8" d="M143.5,40.8c-4.8,0-6.8-3.6-6.8-7.2c0-3.1,1.5-7.5,6.9-7.5c4.6,0,6.7,3.6,6.7,7.3
		C150.2,37.6,147.7,40.8,143.5,40.8z M147.5,31.5c-0.5-2.7-2.3-3.5-3.9-3.5c-3.1,0-4.4,2.4-4.4,5.6c0,2.9,1.2,5.3,4.2,5.3
		c3.9,0,4.2-4,4.2-5.5C147.7,32.6,147.6,31.9,147.5,31.5z"/>
	<path id="XMLID_4596_" class="st8" d="M155.4,26.6h2.6v1.9h-2.6v11.9h-2.3V28.5h-2.3v-1.9h2.3l0-2.8c0-1.2,0.1-3.9,3.6-3.9
		c0.7,0,1.3,0.1,1.7,0.2v1.8c-0.4-0.1-1-0.1-1.3-0.1c-1.7,0-1.8,1.4-1.8,2.5V26.6z"/>
	<path id="XMLID_4594_" class="st8" d="M163.8,26.6h2.5v1.9h-2.5v7.9c0,1.6,0,2.3,1,2.3c0.4,0,1.1-0.2,1.5-0.3v1.9
		c-0.4,0.1-1.4,0.2-2.3,0.2c-2.7,0-2.7-1.3-2.7-3.1v-9h-2.2v-1.9h2.2v-4.4h2.4V26.6z"/>
	<g id="XMLID_4587_">
		<path id="XMLID_4588_" class="st7" d="M170.2,38.1c0-1.4,1.1-2.4,2.4-2.4c1.3,0,2.4,1,2.4,2.4c0,1.4-1.1,2.4-2.4,2.4
			C171.3,40.4,170.2,39.4,170.2,38.1z M172.6,40.1c1.1,0,1.9-0.8,1.9-2c0-1.1-0.8-2-1.9-2c-1.1,0-1.9,0.8-1.9,2
			C170.7,39.2,171.5,40.1,172.6,40.1z M172.1,39.4h-0.4v-2.7h1c0.6,0,1,0.2,1,0.8c0,0.5-0.3,0.7-0.7,0.8l0.8,1.2h-0.5l-0.7-1.2h-0.5
			V39.4z M172.6,37.9c0.4,0,0.7,0,0.7-0.4c0-0.3-0.3-0.4-0.6-0.4h-0.6v0.8H172.6z"/>
	</g>
</g>
</svg>
